<svg style="display:none">
  <defs>
    <symbol id="icon-arrow" viewBox="0 0 512 512">
		<polygon id="arrow" points="407.114,125.916 462,181.064 256,386.084 50,181.064 104.887,125.916 256,276.311 "/>
    </symbol>
    <symbol id="icon-theme" viewBox="0 0 512 512">
		<path id="theme" fill="#f0f0f0" d="M256,90c44.342,0,86.027,17.266,117.381,48.619S422,211.66,422,256s-17.266,86.027-48.619,117.379 C342.027,404.732,300.342,422,256,422V90z M256,50C142.23,50,50,142.229,50,256s92.23,206,206,206c113.771,0,206-92.229,206-206 S369.771,50,256,50z"/>
    </symbol>
    <symbol id="icon-font-size" viewBox="0 0 512 512">
		<path id="font-size" fill="#f0f0f0" d="M512,430.673v18.444h-74.265v-18.444h6.755c5.503,0,9.376-5.43,7.589-10.639l-10.847-31.604h-47.595 l-12.271-33.934h48.98l-29.075-86.966l-24.608,73.61l-18.769-53.277l19.68-55.867h47.396l66.042,187.469 c2.362,6.713,8.707,11.208,15.823,11.208H512L512,430.673z M384.76,416.308h9.187v32.81H255.323v-32.81h12.016	c9.789,0,16.677-9.661,13.5-18.923l-17.393-50.868H130.5l-17.395,50.868c-3.179,9.262,3.711,18.923,13.5,18.923h12.016v32.81H0 v-32.81h9.185c12.66,0,23.944-7.993,28.149-19.939L154.816,62.883h84.312l117.48,333.485 C360.817,408.314,372.102,416.308,384.76,416.308z M151.766,280.795h90.412l-45.205-135.714L151.766,280.795z"/>
	</symbol>
    <symbol id="icon-theme" viewBox="0 0 512 512">
		<path id="theme" fill="#f0f0f0" d="M256,90c44.342,0,86.027,17.266,117.381,48.619S422,211.66,422,256s-17.266,86.027-48.619,117.379 C342.027,404.732,300.342,422,256,422V90z M256,50C142.23,50,50,142.229,50,256s92.23,206,206,206c113.771,0,206-92.229,206-206 S369.771,50,256,50z"/>
    </symbol>
    <symbol id="icon-language-english" viewBox="0 0 512 512">
		<path id="language-fill" fill="#F0F0F0" d="M301.773,241.981c0.554,8.406,1.5,16.147,2.816,23.051 C286.874,268.275,286.155,250.802,301.773,241.981z M176.36,237.893h28.63l-14.25-40.882L176.36,237.893z M321.384,235.931 c0.293,6.7,0.844,12.98,1.641,18.71c5.199-5.375,9.277-12.213,12.379-19.083C330.909,235.192,326.123,235.311,321.384,235.931z M462,238.783c0,104.894-115.562,202.853-274.119,163.913c-28.799,17.805-92.299,35.805-136.963,43.95 C67.582,413.5,86.082,368,85.135,336.276C62.684,309.205,50,274.316,50,238.784C50,138.6,147.189,65.352,256,65.352 C364.133,65.353,462,138.051,462,238.783z M246.479,285.55l-44.02-114.286h-23.116L135.484,285.55h23.938l10.383-29.285h41.578 l10.383,29.285H246.479z M361.08,221.97c1.119-4.321,1.78-7.562,2.401-10.758l-19.522-3.803c-0.319,1.637-0.904,4.732-1.952,8.871 c-6.586-0.961-13.598-1.084-20.701-0.361c0.163-4.768,0.455-9.442,0.869-13.936h21.809v-18.486h-19.188 c0.949-4.719,1.76-7.535,2.557-10.201l-19.062-5.694c-1.395,4.672-2.565,9.224-3.741,15.896h-21.761v18.486h19.388 c-0.515,5.982-0.824,12.177-0.921,18.443c-46.689,17.16-34.81,68.177,2.198,64.822c24.874-2.264,41.49-21.059,51.23-44.168 c10.063,5.809,14.272,15.572,10.481,24.6c-3.511,8.354-13.854,16.317-33.597,15.912v19.896c21.916,0.339,43.481-7.98,51.935-28.104 C391.759,253.74,382.33,232.247,361.08,221.97z"/>
	</symbol>
	<symbol id="icon-language-german" viewBox="0 0 512 512">
		<path id="language-nofill" fill="#f0f0f0" d="M248.167,282.744h-23.355L215,255.071h-39.293l-9.811,27.673h-22.618l41.446-108h21.845 L248.167,282.744z M208.959,237.709l-13.466-38.634l-13.588,38.634H208.959z M352.684,222.66c1.059-4.083,1.684-7.145,2.271-10.166 l-18.449-3.593c-0.304,1.547-0.854,4.473-1.846,8.385c-6.224-0.908-12.85-1.024-19.562-0.344c0.154-4.503,0.43-8.922,0.82-13.167 h20.61v-17.472h-18.135c0.897-4.457,1.663-7.12,2.416-9.641l-18.012-5.381c-1.318,4.416-2.426,8.717-3.536,15.021h-20.563v17.472 h18.32c-0.485,5.653-0.778,11.506-0.87,17.429c-44.12,16.217-32.894,64.429,2.078,61.257c23.506-2.137,39.21-19.898,48.414-41.738 c9.51,5.489,13.488,14.718,9.905,23.246c-3.315,7.895-13.092,15.42-31.748,15.038v18.804c20.711,0.318,41.09-7.544,49.077-26.56 C381.675,252.685,372.765,232.374,352.684,222.66z M328.419,235.502c-2.931,6.493-6.785,12.954-11.697,18.034 c-0.754-5.415-1.274-11.351-1.551-17.681C319.649,235.269,324.173,235.158,328.419,235.502z M296.64,241.573 c0.523,7.944,1.417,15.257,2.661,21.783C282.56,266.42,281.881,249.908,296.64,241.573z M50.918,446.647 C67.583,413.5,86.083,368,85.135,336.276C62.684,309.204,50,274.316,50,238.783c0-100.183,97.19-173.431,206-173.431 c108.132,0,206,72.698,206,173.431c0,104.894-115.562,202.853-274.119,163.914C159.083,420.5,95.583,438.5,50.918,446.647z M256,105.469c-91.469,0-165.884,59.805-165.884,133.314c0,38.68,16.694,63.037,40.256,87.055 c-4.789,35.662-16.289,66.662-16.289,66.662s34-9,72.629-31.56c147.805,39.194,235.171-46.094,235.171-122.157 C421.883,165.273,347.468,105.469,256,105.469z"/>
	</symbol>
    <symbol id="icon-facebook" viewBox="0 0 512 512">
		<path id="facebook" fill="#f0f0f0" d="M204.067,184.692h-43.144v70.426h43.144V462h82.965V254.238h57.882l6.162-69.546h-64.044 c0,0,0-25.97,0-39.615c0-16.398,3.302-22.89,19.147-22.89c12.766,0,44.896,0,44.896,0V50c0,0-47.326,0-57.441,0 c-61.734,0-89.567,27.179-89.567,79.231C204.067,174.566,204.067,184.692,204.067,184.692z"/>
    </symbol>
    <symbol id="icon-twitter" viewBox="0 0 512 512">
		<path id="twitter" fill="#f0f0f0" d="M462,128.223c-15.158,6.724-31.449,11.269-48.547,13.31c17.449-10.461,30.854-27.025,37.164-46.764 c-16.333,9.687-34.422,16.721-53.676,20.511c-15.418-16.428-37.386-26.691-61.698-26.691c-54.56,0-94.668,50.916-82.337,103.787 c-70.25-3.524-132.534-37.177-174.223-88.314c-22.142,37.983-11.485,87.691,26.158,112.85c-13.854-0.438-26.891-4.241-38.285-10.574 c-0.917,39.162,27.146,75.781,67.795,83.949c-11.896,3.237-24.926,3.978-38.17,1.447c10.754,33.58,41.972,58.018,78.96,58.699 C139.604,378.282,94.846,390.721,50,385.436c37.406,23.982,81.837,37.977,129.571,37.977c156.932,0,245.595-132.551,240.251-251.435	C436.339,160.061,450.668,145.174,462,128.223z"/>
	</symbol>
    <symbol id="icon-googleplus" viewBox="0 0 512 512">
		<path fill="#f0f0f0" d="M462,141.347h-54.621v54.622h-27.311v-54.622h-54.622v-27.311h54.622V59.416h27.311v54.621H462V141.347z M307.583,367.26 c0,40.943-37.384,90.787-131.434,90.787C107.365,458.047,50,428.379,50,378.478c0-38.514,24.383-88.511,138.323-88.511 c-16.922-13.792-21.075-33.077-10.733-53.959c-66.714,0-100.879-39.222-100.879-89.023c0-48.731,36.242-93.032,110.15-93.032 c18.66,0,118.398,0,118.398,0l-26.457,27.77h-31.079c21.925,12.562,33.586,38.433,33.586,66.949 c0,26.175-14.413,47.375-34.983,63.279c-36.503,28.222-27.158,43.98,11.087,71.872C295.121,312.074,307.583,333.882,307.583,367.26 z M233.738,150.453c-5.506-41.905-32.806-76.284-64.704-77.243c-31.909-0.949-53.309,31.119-47.798,73.035 c5.509,41.905,35.834,71.178,67.749,72.139C220.882,219.333,239.242,192.363,233.738,150.453z M266.631,371.463 c0-34.466-31.441-67.317-84.192-67.317c-47.542-0.523-87.832,30.042-87.832,65.471c0,36.154,34.335,66.25,81.879,66.25 C237.267,435.866,266.631,407.617,266.631,371.463z"/>
    </symbol>
  </defs>
</svg>